<?xml version="1.0" standalone="no"?><!DOCTYPE svg PUBLIC "-//W3C//DTD SVG 1.1//EN" "http://www.w3.org/Graphics/SVG/1.1/DTD/svg11.dtd"><svg t="1739588430470" class="icon" viewBox="0 0 1024 1024" version="1.1" xmlns="http://www.w3.org/2000/svg" p-id="1404" xmlns:xlink="http://www.w3.org/1999/xlink" width="200" height="200"><path d="M554.666667 725.333333h-85.333334v85.333334H341.333333a42.666667 42.666667 0 1 0 0 85.333333h341.333334a42.666667 42.666667 0 1 0 0-85.333333h-128v-85.333334zM332.8 725.333333c-71.68 0-107.52 0-134.912-13.952a128 128 0 0 1-55.936-55.936C128 628.053333 128 592.213333 128 520.533333V332.8c0-71.68 0-107.52 13.952-134.912a128 128 0 0 1 55.936-55.936C225.28 128 261.12 128 332.8 128h358.4c71.68 0 107.52 0 134.912 13.952a128 128 0 0 1 55.936 55.936C896 225.28 896 261.12 896 332.8v187.733333c0 71.68 0 107.52-13.952 134.912a128 128 0 0 1-55.936 55.936C798.72 725.333333 762.88 725.333333 691.2 725.333333H332.8z" fill="#2A343D" p-id="1405"></path></svg>