<?xml version="1.0" standalone="no"?><!DOCTYPE svg PUBLIC "-//W3C//DTD SVG 1.1//EN" "http://www.w3.org/Graphics/SVG/1.1/DTD/svg11.dtd"><svg t="1739549873132" class="icon" viewBox="0 0 1024 1024" version="1.1" xmlns="http://www.w3.org/2000/svg" p-id="2037" xmlns:xlink="http://www.w3.org/1999/xlink" width="200" height="200"><path d="M128 332.8c0-72.533333 0-106.666667 12.8-136.533333 12.8-25.6 29.866667-42.666667 55.466667-55.466667C226.133333 128 260.266667 128 332.8 128h358.4c72.533333 0 106.666667 0 136.533333 12.8 25.6 12.8 42.666667 29.866667 55.466667 55.466667 12.8 29.866667 12.8 64 12.8 136.533333v358.4c0 72.533333 0 106.666667-12.8 136.533333-12.8 25.6-29.866667 42.666667-55.466667 55.466667-29.866667 12.8-64 12.8-136.533333 12.8H332.8c-72.533333 0-106.666667 0-136.533333-12.8-25.6-12.8-42.666667-29.866667-55.466667-55.466667-12.8-29.866667-12.8-64-12.8-136.533333V332.8z" fill="#2A343D" p-id="2038"></path><path d="M640 597.333333c0-25.6-17.066667-42.666667-42.666667-42.666666s-42.666667 17.066667-42.666666 42.666666v170.666667c0 25.6 17.066667 42.666667 42.666666 42.666667s42.666667-17.066667 42.666667-42.666667v-170.666667zM768 298.666667c25.6 0 42.666667 17.066667 42.666667 42.666666v426.666667c0 25.6-17.066667 42.666667-42.666667 42.666667s-42.666667-17.066667-42.666667-42.666667V341.333333c0-25.6 17.066667-42.666667 42.666667-42.666666zM469.333333 426.666667c0-25.6-17.066667-42.666667-42.666666-42.666667s-42.666667 17.066667-42.666667 42.666667v341.333333c0 25.6 17.066667 42.666667 42.666667 42.666667s42.666667-17.066667 42.666666-42.666667v-341.333333zM256 213.333333c25.6 0 42.666667 17.066667 42.666667 42.666667v512c0 25.6-17.066667 42.666667-42.666667 42.666667s-42.666667-17.066667-42.666667-42.666667V256c0-25.6 17.066667-42.666667 42.666667-42.666667z" fill="#FFFFFF" p-id="2039"></path></svg>