<?xml version="1.0" standalone="no"?><!DOCTYPE svg PUBLIC "-//W3C//DTD SVG 1.1//EN" "http://www.w3.org/Graphics/SVG/1.1/DTD/svg11.dtd"><svg t="1739549987813" class="icon" viewBox="0 0 1024 1024" version="1.1" xmlns="http://www.w3.org/2000/svg" p-id="2834" xmlns:xlink="http://www.w3.org/1999/xlink" width="200" height="200"><path d="M384 170.666667a42.666667 42.666667 0 1 0-85.333333 0v42.666666c-19.584 0-36.693333 0.128-50.986667 1.28-16.853333 1.408-33.664 4.437333-49.792 12.672a128 128 0 0 0-55.936 55.936c-8.234667 16.128-11.264 32.938667-12.629333 49.792-0.725333 8.832-1.066667 18.773333-1.194667 29.653334-0.170667 11.776 9.429333 21.333333 21.205333 21.333333h725.333334a21.162667 21.162667 0 0 0 21.205333-21.333333c-0.128-10.922667-0.426667-20.821333-1.194667-29.653334-1.365333-16.853333-4.394667-33.664-12.629333-49.792a128 128 0 0 0-55.936-55.936c-16.128-8.234667-32.938667-11.264-49.792-12.629333C761.984 213.461333 744.917333 213.333333 725.333333 213.333333V170.666667a42.666667 42.666667 0 1 0-85.333333 0v42.666666H384V170.666667z m512 320a21.333333 21.333333 0 0 0-21.333333-21.333334h-725.333334a21.333333 21.333333 0 0 0-21.333333 21.333334v227.797333c0 22.485333 0 41.898667 1.28 57.856 1.408 16.853333 4.437333 33.664 12.672 49.792a128 128 0 0 0 55.936 55.936c16.128 8.234667 32.938667 11.264 49.792 12.629333 16 1.322667 35.413333 1.322667 57.856 1.322667h412.928c22.485333 0 41.898667 0 57.856-1.28 16.853333-1.408 33.664-4.437333 49.792-12.672a128 128 0 0 0 55.936-55.936c8.234667-16.128 11.264-32.938667 12.629333-49.792 1.322667-16 1.322667-35.413333 1.322667-57.856V490.666667z" fill="#2A343D" p-id="2835"></path></svg>