<?xml version="1.0" standalone="no"?><!DOCTYPE svg PUBLIC "-//W3C//DTD SVG 1.1//EN" "http://www.w3.org/Graphics/SVG/1.1/DTD/svg11.dtd"><svg t="1739550053833" class="icon" viewBox="0 0 1024 1024" version="1.1" xmlns="http://www.w3.org/2000/svg" p-id="3151" xmlns:xlink="http://www.w3.org/1999/xlink" width="200" height="200"><path d="M128 737.066667V401.066667c0-95.573333 0-143.36 18.602667-179.882667a170.666667 170.666667 0 0 1 74.581333-74.581333C257.706667 128 305.493333 128 401.066667 128h221.866666c95.573333 0 143.36 0 179.882667 18.602667a170.666667 170.666667 0 0 1 74.581333 74.581333C896 257.706667 896 305.493333 896 401.066667v51.2c0 95.573333 0 143.36-18.602667 179.882666a170.666667 170.666667 0 0 1-74.581333 74.581334C766.293333 725.333333 718.506667 725.333333 622.933333 725.333333h-180.906666c-21.418667 0-32.128 0-42.154667 2.474667a85.333333 85.333333 0 0 0-25.130667 10.666667c-8.746667 5.546667-16.170667 13.226667-31.018666 28.586666l-39.637334 41.088c-55.04 57.045333-82.56 85.589333-106.24 87.722667a64 64 0 0 1-54.272-21.888C128 855.978667 128 816.341333 128 737.024z" fill="#2A343D" p-id="3152"></path></svg>