<?xml version="1.0" standalone="no"?><!DOCTYPE svg PUBLIC "-//W3C//DTD SVG 1.1//EN" "http://www.w3.org/Graphics/SVG/1.1/DTD/svg11.dtd"><svg t="1739549786933" class="icon" viewBox="0 0 1024 1024" version="1.1" xmlns="http://www.w3.org/2000/svg" p-id="1877" xmlns:xlink="http://www.w3.org/1999/xlink" width="200" height="200"><path d="M170.666667 896a42.666667 42.666667 0 0 1 42.666666-42.666667h597.333334a42.666667 42.666667 0 1 1 0 85.333334H213.333333a42.666667 42.666667 0 0 1-42.666666-42.666667zM765.909333 122.752a128 128 0 0 0-180.992 0L251.136 456.533333a64 64 0 0 0-16.426667 28.117334L172.544 708.266667a46.933333 46.933333 0 0 0 57.770667 57.813333l223.701333-62.208a64 64 0 0 0 28.117333-16.384l333.781334-333.781333a128 128 0 0 0 0-181.034667l-50.005334-49.962667z" fill="#2A343D" p-id="1878"></path></svg>