<?xml version="1.0" standalone="no"?><!DOCTYPE svg PUBLIC "-//W3C//DTD SVG 1.1//EN" "http://www.w3.org/Graphics/SVG/1.1/DTD/svg11.dtd"><svg t="1739550762141" class="icon" viewBox="0 0 1024 1024" version="1.1" xmlns="http://www.w3.org/2000/svg" p-id="1690" xmlns:xlink="http://www.w3.org/1999/xlink" width="200" height="200"><path d="M889.427753 416.421454c0-10.2615-5.765986-19.545715-14.952471-24.138957L517.375072 213.536935c-9.479672-4.7887-20.913915-4.7887-30.393587 0L129.979004 392.282497c-9.186486 4.593243-14.952472 13.877458-14.952472 24.138957 0 10.2615 5.668257 19.545715 14.952472 24.138958l87.662531 43.88013v202.786791c0 12.606986 5.4728 24.627601 14.952471 32.93453 76.912388 67.334988 173.272762 100.953617 269.730865 100.953617S695.143348 787.496851 772.055736 720.161863c9.479672-8.306929 14.952472-20.327543 14.952472-32.93453V484.440542l53.750715-26.875358V613.735446h48.864288V416.421454zM738.046192 684.979576c-134.865432 116.590189-336.772667 116.590189-471.638099 0V508.970414l220.573392 110.433289c4.7887 2.345486 9.968315 3.615957 15.245658 3.615957s10.456957-1.172743 15.245657-3.615957l220.573392-110.433289v176.009162zM502.227143 572.396259L190.863905 416.519183l311.363238-155.877076 311.363237 155.877076-311.363237 155.877076z" p-id="1691"></path></svg>