<?xml version="1.0" standalone="no"?><!DOCTYPE svg PUBLIC "-//W3C//DTD SVG 1.1//EN" "http://www.w3.org/Graphics/SVG/1.1/DTD/svg11.dtd"><svg t="1739550567820" class="icon" viewBox="0 0 1024 1024" version="1.1" xmlns="http://www.w3.org/2000/svg" p-id="2126" xmlns:xlink="http://www.w3.org/1999/xlink" width="200" height="200"><path d="M253.952 170.581333c-86.784 0-154.709333 21.930667-166.698667 105.344-3.84 26.709333 4.608 52.992 24.021334 71.978667 9.642667 9.429333 19.84 20.650667 33.322666 32 33.834667 28.586667 76.970667 60.629333 117.333334 89.344 111.061333 78.933333 198.741333 128 250.666666 128 51.925333 0 139.605333-49.066667 250.666667-128 40.405333-28.714667 83.541333-60.842667 117.333333-89.344 13.482667-11.349333 23.68-22.528 33.322667-32a82.944 82.944 0 0 0 24.021333-71.978667c-11.946667-83.413333-79.914667-105.344-166.698666-105.344H253.952z m-168.021333 262.656v249.344a170.666667 170.666667 0 0 0 170.666666 170.666667h512a170.666667 170.666667 0 0 0 170.666667-170.666667v-249.344a1114.538667 1114.538667 0 0 1-129.28 106.666667c-121.045333 85.674667-229.717333 142.677333-297.386667 142.677333-67.669333 0-176.341333-57.002667-297.344-142.677333a1110.912 1110.912 0 0 1-129.28-106.666667z" fill="#2A343D" p-id="2127"></path></svg>