<?xml version="1.0" standalone="no"?><!DOCTYPE svg PUBLIC "-//W3C//DTD SVG 1.1//EN" "http://www.w3.org/Graphics/SVG/1.1/DTD/svg11.dtd"><svg t="1739549974022" class="icon" viewBox="0 0 1024 1024" version="1.1" xmlns="http://www.w3.org/2000/svg" p-id="2676" xmlns:xlink="http://www.w3.org/1999/xlink" width="200" height="200"><path d="M463.872 174.208C449.024 170.624 433.706667 170.666667 416.341333 170.666667H262.826667c-22.485333 0-41.856 0-57.856 1.28-16.853333 1.408-33.664 4.437333-49.792 12.672a128 128 0 0 0-55.936 55.936c-8.234667 16.170667-11.264 32.938667-12.629334 49.792C85.333333 306.346667 85.333333 325.76 85.333333 348.245333v327.552c0 22.485333 0 41.898667 1.28 57.856 1.408 16.853333 4.437333 33.664 12.672 49.792a128 128 0 0 0 55.936 55.936c16.128 8.234667 32.938667 11.264 49.792 12.672 16 1.28 35.413333 1.28 57.856 1.28H761.173333c22.485333 0 41.898667 0 57.856-1.28 16.853333-1.408 33.664-4.437333 49.792-12.672a128 128 0 0 0 55.936-55.893333c8.234667-16.213333 11.264-32.981333 12.629334-49.834667 1.322667-15.957333 1.322667-35.413333 1.322666-57.856V433.493333c0-22.485333 0-41.856-1.28-57.856-1.408-16.853333-4.437333-33.621333-12.672-49.792a128 128 0 0 0-55.936-55.893333c-16.128-8.277333-32.938667-11.306667-49.792-12.672A763.733333 763.733333 0 0 0 761.130667 256h-188.8l-35.370667-35.413333c-12.245333-12.288-23.04-23.125333-36.096-31.104a128 128 0 0 0-36.992-15.317334z" fill="#2A343D" p-id="2677"></path></svg>