<?xml version="1.0" standalone="no"?><!DOCTYPE svg PUBLIC "-//W3C//DTD SVG 1.1//EN" "http://www.w3.org/Graphics/SVG/1.1/DTD/svg11.dtd"><svg t="1739549699395" class="icon" viewBox="0 0 1024 1024" version="1.1" xmlns="http://www.w3.org/2000/svg" p-id="1404" xmlns:xlink="http://www.w3.org/1999/xlink" width="200" height="200"><path d="M597.333333 256a42.666667 42.666667 0 1 0 0 85.333333h256a42.666667 42.666667 0 1 0 0-85.333333h-256zM597.333333 682.666667a42.666667 42.666667 0 1 0 0 85.333333h256a42.666667 42.666667 0 1 0 0-85.333333h-256zM137.301333 174.592C128 192.853333 128 216.746667 128 264.533333v68.266667c0 47.786667 0 71.68 9.301333 89.941333a85.333333 85.333333 0 0 0 37.290667 37.290667C192.853333 469.333333 216.746667 469.333333 264.533333 469.333333h68.266667c47.786667 0 71.68 0 89.941333-9.301333a85.333333 85.333333 0 0 0 37.290667-37.290667C469.333333 404.48 469.333333 380.586667 469.333333 332.8V264.533333c0-47.786667 0-71.68-9.301333-89.941333a85.333333 85.333333 0 0 0-37.290667-37.290667C404.48 128 380.586667 128 332.8 128H264.533333c-47.786667 0-71.68 0-89.941333 9.301333a85.333333 85.333333 0 0 0-37.290667 37.290667zM137.301333 601.258667C128 619.52 128 643.413333 128 691.2v68.266667c0 47.786667 0 71.68 9.301333 89.941333a85.333333 85.333333 0 0 0 37.290667 37.290667C192.853333 896 216.746667 896 264.533333 896h68.266667c47.786667 0 71.68 0 89.941333-9.301333a85.333333 85.333333 0 0 0 37.290667-37.290667C469.333333 831.146667 469.333333 807.253333 469.333333 759.466667v-68.266667c0-47.786667 0-71.68-9.301333-89.941333a85.333333 85.333333 0 0 0-37.290667-37.290667C404.48 554.666667 380.586667 554.666667 332.8 554.666667H264.533333c-47.786667 0-71.68 0-89.941333 9.301333a85.333333 85.333333 0 0 0-37.290667 37.290667z" fill="#2A343D" p-id="1405"></path></svg>