<?xml version="1.0" standalone="no"?><!DOCTYPE svg PUBLIC "-//W3C//DTD SVG 1.1//EN" "http://www.w3.org/Graphics/SVG/1.1/DTD/svg11.dtd"><svg t="1739551018970" class="icon" viewBox="0 0 1024 1024" version="1.1" xmlns="http://www.w3.org/2000/svg" p-id="1106" xmlns:xlink="http://www.w3.org/1999/xlink" width="200" height="200"><path d="M853.333333 422.4h-418.133333c-72.533333 0-128-55.466667-128-128V170.666667c0-72.533333 55.466667-128 128-128H853.333333c72.533333 0 128 55.466667 128 128v123.733333c0 72.533333-55.466667 128-128 128zM435.2 128c-25.6 0-42.666667 17.066667-42.666667 42.666667v123.733333c0 25.6 17.066667 42.666667 42.666667 42.666667H853.333333c25.6 0 42.666667-17.066667 42.666667-42.666667V170.666667c0-25.6-17.066667-42.666667-42.666667-42.666667h-418.133333zM226.133333 226.133333L42.666667 362.666667V102.4z" fill="#4E5969" p-id="1107"></path><path d="M853.333333 981.333333h-418.133333c-72.533333 0-128-55.466667-128-128v-123.733333c0-72.533333 55.466667-128 128-128H853.333333c72.533333 0 128 55.466667 128 128V853.333333c0 72.533333-55.466667 128-128 128z m-418.133333-294.4c-25.6 0-42.666667 17.066667-42.666667 42.666667V853.333333c0 25.6 17.066667 42.666667 42.666667 42.666667H853.333333c25.6 0 42.666667-17.066667 42.666667-42.666667v-123.733333c0-25.6-17.066667-42.666667-42.666667-42.666667h-418.133333zM226.133333 785.066667L42.666667 921.6v-260.266667z" fill="#4E5969" p-id="1108"></path></svg>