<?xml version="1.0" standalone="no"?><!DOCTYPE svg PUBLIC "-//W3C//DTD SVG 1.1//EN" "http://www.w3.org/Graphics/SVG/1.1/DTD/svg11.dtd"><svg t="1739550676381" class="icon" viewBox="0 0 1024 1024" version="1.1" xmlns="http://www.w3.org/2000/svg" p-id="2442" xmlns:xlink="http://www.w3.org/1999/xlink" width="200" height="200"><path d="M511.573333 85.290667c-151.509333 0-256 104.448-256 256v85.333333c0 42.666667-6.869333 65.706667-30.634666 85.333333-2.688 2.218667-13.952 11.904-17.322667 14.677334C153.6 571.306667 127.146667 613.12 127.573333 682.666667c0.341333 45.994667 38.101333 85.802667 85.333334 85.333333h178.773333s-8.106667 26.069333-8.106667 42.666667a128 128 0 1 0 256 0c0-16.597333-7.808-42.666667-7.808-42.666667h178.474667c47.104 0.128 85.290667-39.082667 85.333333-85.333333 0.085333-69.034667-26.709333-111.573333-80-155.989334-3.498667-2.944-15.872-12.373333-18.645333-14.677333-23.253333-19.370667-29.354667-42.666667-29.354667-85.333333V341.333333c0-151.552-104.448-256-256-256z m0 682.666666a42.666667 42.666667 0 1 1 0 85.333334 42.666667 42.666667 0 0 1 0-85.333334z" fill="#2A343D" p-id="2443"></path></svg>