<?xml version="1.0" standalone="no"?><!DOCTYPE svg PUBLIC "-//W3C//DTD SVG 1.1//EN" "http://www.w3.org/Graphics/SVG/1.1/DTD/svg11.dtd"><svg t="1739550080323" class="icon" viewBox="0 0 1024 1024" version="1.1" xmlns="http://www.w3.org/2000/svg" p-id="3309" xmlns:xlink="http://www.w3.org/1999/xlink" width="200" height="200"><path d="M512 512m-426.666667 0a426.666667 426.666667 0 1 0 853.333334 0 426.666667 426.666667 0 1 0-853.333334 0Z" fill="#2A343D" p-id="3310"></path><path d="M426.666667 384c0-25.6 17.066667-42.666667 42.666666-42.666667h85.333334c25.6 0 42.666667 17.066667 42.666666 42.666667s17.066667 42.666667 42.666667 42.666667 42.666667-17.066667 42.666667-42.666667c0-72.533333-55.466667-128-128-128V213.333333c0-25.6-17.066667-42.666667-42.666667-42.666666s-42.666667 17.066667-42.666667 42.666666v42.666667C396.8 256 341.333333 311.466667 341.333333 384v25.6c0 55.466667 34.133333 102.4 89.6 119.466667l140.8 46.933333c17.066667 4.266667 29.866667 21.333333 29.866667 38.4v25.6c0 25.6-17.066667 42.666667-42.666667 42.666667h-85.333333c-25.6 0-42.666667-17.066667-42.666667-42.666667s-17.066667-42.666667-42.666666-42.666667-42.666667 17.066667-42.666667 42.666667c0 72.533333 55.466667 128 128 128v42.666667c0 25.6 17.066667 42.666667 42.666667 42.666666s42.666667-17.066667 42.666666-42.666666v-42.666667c72.533333 0 128-55.466667 128-128v-25.6c0-55.466667-34.133333-102.4-89.6-119.466667l-140.8-46.933333c-17.066667-4.266667-29.866667-21.333333-29.866666-38.4V384z" fill="#FFFFFF" p-id="3311"></path></svg>