<!--<?xml version="1.0" standalone="no"?><!DOCTYPE svg PUBLIC "-//W3C//DTD SVG 1.1//EN" "http://www.w3.org/Graphics/SVG/1.1/DTD/svg11.dtd"><svg t="1739550942413" class="icon" viewBox="0 0 1024 1024" version="1.1" xmlns="http://www.w3.org/2000/svg" p-id="1494" xmlns:xlink="http://www.w3.org/1999/xlink" width="200" height="200"><path d="M341.290667 260.437333a256 256 0 1 0 0 512c90.581333 0 194.944-52.053333 242.133333-171.008l184.533333 0.341334 42.666667 85.333333h128v-256l-355.541333-0.426667c-45.824-115.626667-151.210667-170.24-241.792-170.24z m0 213.333334c10.922667 0 22.314667 3.669333 30.677333 11.946666a43.946667 43.946667 0 0 1 0 61.354667 43.946667 43.946667 0 0 1-61.354667 0 43.946667 43.946667 0 0 1 0-61.354667c8.362667-8.277333 19.754667-11.946667 30.677334-11.946666z" fill="#2A343D" p-id="1495"></path></svg>-->
<svg class="icon" viewBox="0 0 1024 1024" version="1.1" xmlns="http://www.w3.org/2000/svg" xmlns:xlink="http://www.w3.org/1999/xlink" width="200" height="200">
    <path d="M341.290667 260.437333a256 256 0 1 0 0 512c90.581333 0 194.944-52.053333 242.133333-171.008l184.533333 0.341334 42.666667 85.333333h128v-256l-355.541333-0.426667c-45.824-115.626667-151.210667-170.24-241.792-170.24z m0 213.333334c10.922667 0 22.314667 3.669333 30.677333 11.946666a43.946667 43.946667 0 0 1 0 61.354667 43.946667 43.946667 0 0 1-61.354667 0 43.946667 43.946667 0 0 1 0-61.354667c8.362667-8.277333 19.754667-11.946667 30.677334-11.946666z" fill="#2A343D"></path>
</svg>