<?xml version="1.0" standalone="no"?><!DOCTYPE svg PUBLIC "-//W3C//DTD SVG 1.1//EN" "http://www.w3.org/Graphics/SVG/1.1/DTD/svg11.dtd"><svg t="1739550234572" class="icon" viewBox="0 0 1024 1024" version="1.1" xmlns="http://www.w3.org/2000/svg" p-id="1652" xmlns:xlink="http://www.w3.org/1999/xlink" width="200" height="200"><path d="M661.290667 125.013333a192 192 0 1 0 0 384 192 192 0 0 0 0-384z m-320 42.666667a170.666667 170.666667 0 0 0 0 341.333333c35.413333 0 67.712-9.728 96.128-29.610666-72.917333-108.373333-62.592-212.138667-22.826667-295.722667a170.453333 170.453333 0 0 0-73.301333-16z m-125.312 398.677333c-78.293333 32.298667-130.688 111.445333-130.688 198.656v85.333334a42.666667 42.666667 0 0 0 42.666666 42.666666l177.194667 0.085334c-9.984-32.426667-7.04-84.992-6.4-127.573334 1.408-90.282667 38.741333-154.709333 53.333333-171.690666a233.130667 233.130667 0 0 1-82.773333-16.810667c-5.717333-2.432-9.045333-4.352-20.053333-9.386667a41.130667 41.130667 0 0 0-33.28-1.28z m298.666666 0c-78.293333 32.298667-130.688 111.445333-130.688 198.656v85.333334a42.666667 42.666667 0 0 0 42.666667 42.666666h469.333333a42.666667 42.666667 0 0 0 42.666667-42.666666v-85.333334c0-85.162667-52.693333-162.389333-130.688-196.010666a43.52 43.52 0 0 0-34.645333 0c-37.76 16.938667-74.538667 25.344-112 25.344-37.333333 0-74.24-8.874667-113.322667-26.666667a41.130667 41.130667 0 0 0-33.322667-1.322667z" fill="#2A343D" p-id="1653"></path></svg>