<?xml version="1.0" standalone="no"?><!DOCTYPE svg PUBLIC "-//W3C//DTD SVG 1.1//EN" "http://www.w3.org/Graphics/SVG/1.1/DTD/svg11.dtd"><svg t="1739550965520" class="icon" viewBox="0 0 1024 1024" version="1.1" xmlns="http://www.w3.org/2000/svg" p-id="946" xmlns:xlink="http://www.w3.org/1999/xlink" width="200" height="200"><path d="M746.666667 981.333333c-174.933333 0-332.8-72.533333-473.6-213.333333l-21.333334-21.333333v4.266666C89.6 567.466667 38.4 366.933333 42.666667 247.466667c4.266667-68.266667 38.4-136.533333 89.6-179.2 34.133333-21.333333 51.2-25.6 64-25.6 4.266667 0 12.8 4.266667 17.066666 8.533333 59.733333 72.533333 115.2 153.6 162.133334 238.933333 8.533333 12.8 0 46.933333-34.133334 76.8l-12.8 12.8c-38.4 29.866667-85.333333 72.533333-55.466666 132.266667 25.6 55.466667 64 106.666667 110.933333 149.333333 42.666667 51.2 102.4 89.6 166.4 115.2 8.533333 4.266667 17.066667 4.266667 25.6 4.266667 42.666667 0 68.266667-34.133333 85.333333-59.733333 4.266667-4.266667 8.533333-12.8 12.8-17.066667 21.333333-25.6 38.4-38.4 55.466667-38.4 4.266667 0 8.533333 0 12.8 4.266667 81.066667 46.933333 157.866667 102.4 230.4 162.133333 8.533333 8.533333-4.266667 38.4-12.8 51.2-42.666667 59.733333-106.666667 98.133333-179.2 102.4-8.533333-4.266667-21.333333-4.266667-34.133333-4.266667z" fill="#4E5969" p-id="947"></path></svg>