<?xml version="1.0" standalone="no"?><!DOCTYPE svg PUBLIC "-//W3C//DTD SVG 1.1//EN" "http://www.w3.org/Graphics/SVG/1.1/DTD/svg11.dtd"><svg t="1739549937813" class="icon" viewBox="0 0 1024 1024" version="1.1" xmlns="http://www.w3.org/2000/svg" p-id="2357" xmlns:xlink="http://www.w3.org/1999/xlink" width="200" height="200"><path d="M128 401.066667c0-93.866667 0-145.066667 17.066667-179.2 17.066667-34.133333 42.666667-59.733333 72.533333-72.533334C256 128 307.2 128 401.066667 128h221.866666c93.866667 0 145.066667 0 179.2 17.066667 34.133333 17.066667 59.733333 42.666667 72.533334 72.533333 21.333333 38.4 21.333333 89.6 21.333333 183.466667v149.333333c0 21.333333 0 29.866667-4.266667 38.4-4.266667 4.266667-8.533333 8.533333-17.066666 8.533333s-17.066667-4.266667-34.133334-17.066666l-119.466666-81.066667-4.266667-4.266667c-17.066667-12.8-34.133333-21.333333-51.2-25.6-17.066667-4.266667-34.133333-4.266667-51.2 0-17.066667 4.266667-34.133333 17.066667-51.2 29.866667l-4.266667 4.266667-106.666666 76.8c-21.333333 12.8-25.6 17.066667-25.6 17.066666h-8.533334s-4.266667 0-25.6-12.8l-21.333333-12.8h-4.266667c-12.8-8.533333-29.866667-12.8-46.933333-17.066666-12.8-4.266667-29.866667 0-42.666667 4.266666-17.066667 4.266667-29.866667 12.8-42.666666 21.333334h-4.266667l-81.066667 51.2c-8.533333 4.266667-17.066667 0-17.066666-8.533334V401.066667z" fill="#2A343D" p-id="2358"></path><path d="M149.333333 729.6c-8.533333 4.266667-8.533333 4.266667-12.8 8.533333 0 4.266667-4.266667 4.266667-4.266666 8.533334v12.8c4.266667 17.066667 8.533333 29.866667 12.8 38.4 17.066667 34.133333 42.666667 59.733333 72.533333 72.533333 38.4 25.6 89.6 25.6 183.466667 25.6h221.866666c93.866667 0 145.066667 0 179.2-17.066667 34.133333-17.066667 59.733333-42.666667 72.533334-72.533333 8.533333-17.066667 12.8-38.4 17.066666-68.266667V725.333333c0-4.266667-4.266667-4.266667-4.266666-8.533333-4.266667-4.266667-4.266667-4.266667-12.8-8.533333l-204.8-132.266667c-17.066667-21.333333-21.333333-21.333333-25.6-21.333333h-8.533334s-4.266667 0-29.866666 17.066666l-106.666667 76.8-4.266667 4.266667c-12.8 8.533333-29.866667 21.333333-46.933333 25.6-12.8 4.266667-25.6 4.266667-42.666667 4.266667-17.066667-4.266667-34.133333-8.533333-51.2-17.066667h-4.266666l-21.333334-12.8c-17.066667-12.8-21.333333-12.8-21.333333-12.8H298.666667s-4.266667 0-25.6 12.8l-123.733334 76.8z" fill="#2A343D" p-id="2359"></path><path d="M384 384m-85.333333 0a85.333333 85.333333 0 1 0 170.666666 0 85.333333 85.333333 0 1 0-170.666666 0Z" fill="#FFFFFF" p-id="2360"></path></svg>