<?xml version="1.0" standalone="no"?><!DOCTYPE svg PUBLIC "-//W3C//DTD SVG 1.1//EN" "http://www.w3.org/Graphics/SVG/1.1/DTD/svg11.dtd"><svg t="1739548376798" class="icon" viewBox="0 0 1024 1024" version="1.1" xmlns="http://www.w3.org/2000/svg" p-id="1713" xmlns:xlink="http://www.w3.org/1999/xlink" width="200" height="200"><path d="M908.8 164.266667c-12.8-38.4-53.333333-61.866667-93.866667-49.066667L533.333333 204.8c-14.933333 4.266667-29.866667 4.266667-44.8 0L209.066667 115.2c-10.666667-2.133333-19.2-2.133333-27.733334-2.133333-21.333333 2.133333-38.4 10.666667-51.2 25.6s-21.333333 34.133333-19.2 53.333333l29.866667 422.4C147.2 695.466667 192 768 262.4 810.666667l221.866667 128c8.533333 4.266667 17.066667 6.4 27.733333 6.4 8.533333 0 19.2-2.133333 27.733333-6.4l221.866667-128c70.4-40.533333 115.2-113.066667 121.6-194.133334L913.066667 192c0-8.533333 0-17.066667-4.266667-27.733333z m-89.6 445.866666c-4.266667 59.733333-38.4 113.066667-89.6 142.933334l-217.6 128-217.6-125.866667c-51.2-29.866667-85.333333-83.2-89.6-142.933333L174.933333 187.733333c0-4.266667 2.133333-6.4 2.133334-8.533333s4.266667-4.266667 6.4-4.266667h4.266666L469.333333 262.4c27.733333 8.533333 55.466667 8.533333 83.2 0l281.6-87.466667c6.4-2.133333 10.666667 2.133333 12.8 6.4v4.266667l-27.733333 424.533333zM576 448c0 23.466667-12.8 44.8-32 55.466667v125.866666c0 17.066667-14.933333 32-32 32s-32-14.933333-32-32v-125.866666c-19.2-10.666667-32-32-32-55.466667 0-36.266667 27.733333-64 64-64s64 27.733333 64 64z" p-id="1714"></path></svg>