<?xml version="1.0" standalone="no"?><!DOCTYPE svg PUBLIC "-//W3C//DTD SVG 1.1//EN" "http://www.w3.org/Graphics/SVG/1.1/DTD/svg11.dtd"><svg t="1739550284271" class="icon" viewBox="0 0 1024 1024" version="1.1" xmlns="http://www.w3.org/2000/svg" p-id="1810" xmlns:xlink="http://www.w3.org/1999/xlink" width="200" height="200"><path d="M639.573333 125.013333c-54.058667 0-104.533333 35.498667-120.234666 85.418667L170.24 210.346667a42.666667 42.666667 0 0 0 0 85.333333l349.013333-0.042667c19.157333 52.266667 66.218667 85.333333 120.32 85.333334 54.101333 0 101.632-33.152 121.088-85.674667l92.245334 0.384a42.666667 42.666667 0 0 0 0-85.333333h-92.586667c-20.565333-52.053333-66.645333-85.333333-120.746667-85.333334z m-256 256c-56.192 0-103.253333 34.986667-120.448 85.418667-6.016 0.384-92.842667-0.085333-92.842666-0.085333a42.666667 42.666667 0 0 0 0 85.333333s87.552-0.896 93.013333-0.341333a126.037333 126.037333 0 0 0 120.32 85.674666c54.101333 0 100.437333-33.152 120.704-85.205333l348.586667-0.128a42.666667 42.666667 0 0 0 0-85.333333l-348.8-0.426667A128.426667 128.426667 0 0 0 383.573333 381.013333z m256 256c-54.058667 0-103.552 35.626667-120.32 84.906667l-349.013333 0.426667a42.666667 42.666667 0 0 0 0 85.333333h348.458667a128.810667 128.810667 0 0 0 120.917333 85.333333c54.101333 0 100.693333-33.834667 121.258667-85.333333h92.074666a42.666667 42.666667 0 0 0 0-85.333333l-92.458666-0.256a129.365333 129.365333 0 0 0-120.874667-85.077334z" fill="#2A343D" p-id="1811"></path></svg>