<?xml version="1.0" standalone="no"?><!DOCTYPE svg PUBLIC "-//W3C//DTD SVG 1.1//EN" "http://www.w3.org/Graphics/SVG/1.1/DTD/svg11.dtd"><svg t="1739550903150" class="icon" viewBox="0 0 1024 1024" version="1.1" xmlns="http://www.w3.org/2000/svg" p-id="2205" xmlns:xlink="http://www.w3.org/1999/xlink" width="200" height="200"><path d="M870.4 401.066667c-8.533333-21.333333-17.066667-42.666667-27.733333-64v-2.133334c21.333333-25.6 17.066667-64-6.4-87.466666l-64-64c-23.466667-23.466667-61.866667-25.6-87.466667-6.4-21.333333-10.666667-42.666667-19.2-64-25.6V149.333333c-4.266667-32-32-57.6-66.133333-57.6h-89.6c-34.133333 0-61.866667 25.6-66.133334 57.6v2.133334c-21.333333 6.4-42.666667 14.933333-64 25.6-25.6-21.333333-64-17.066667-87.466666 6.4l-64 64c-23.466667 23.466667-25.6 61.866667-6.4 87.466666-10.666667 21.333333-19.2 42.666667-25.6 64H149.333333c-32 4.266667-57.6 32-57.6 66.133334V554.666667c0 34.133333 25.6 61.866667 57.6 66.133333h2.133334c6.4 21.333333 14.933333 42.666667 25.6 64-21.333333 25.6-17.066667 64 6.4 87.466667l64 64c23.466667 23.466667 61.866667 25.6 87.466666 6.4 21.333333 10.666667 42.666667 19.2 64 25.6v2.133333c4.266667 32 32 57.6 66.133334 57.6H554.666667c34.133333 0 61.866667-25.6 66.133333-57.6v-2.133333c21.333333-6.4 42.666667-14.933333 64-25.6 25.6 21.333333 64 17.066667 87.466667-6.4l64-64c23.466667-23.466667 25.6-61.866667 6.4-87.466667 10.666667-21.333333 19.2-42.666667 25.6-64h2.133333c32-4.266667 57.6-32 57.6-66.133333v-89.6c0-29.866667-25.6-59.733333-57.6-64z m-6.4 155.733333s0 2.133333 0 0l-46.933333 8.533333-4.266667 21.333334c-6.4 29.866667-19.2 59.733333-36.266667 87.466666l-10.666666 19.2 27.733333 36.266667v2.133333l-64 64h-2.133333L691.2 768l-19.2 10.666667c-27.733333 17.066667-55.466667 27.733333-87.466667 36.266666l-21.333333 4.266667-6.4 44.8s0 2.133333-2.133333 2.133333h-89.6c-2.133333 0-2.133333 0-2.133334-2.133333l-6.4-44.8-21.333333-4.266667c-29.866667-8.533333-59.733333-19.2-87.466667-36.266666l-19.2-10.666667-36.266666 27.733333h-2.133334l-64-64v-2.133333l27.733334-36.266667-10.666667-19.2c-17.066667-27.733333-27.733333-55.466667-36.266667-87.466666l-4.266666-21.333334-44.8-6.4s-2.133333 0-2.133334-2.133333v-89.6c0-2.133333 0-2.133333 2.133334-2.133333l44.8-6.4 4.266666-21.333334c8.533333-29.866667 19.2-59.733333 36.266667-87.466666l10.666667-19.2-27.733334-36.266667v-2.133333l64-64h2.133334l36.266666 27.733333 19.2-10.666667c27.733333-17.066667 55.466667-27.733333 87.466667-36.266666l21.333333-4.266667 6.4-44.8c0-2.133333 0-2.133333 2.133334-2.133333H554.666667s2.133333 0 2.133333 2.133333l6.4 44.8 21.333333 4.266667c29.866667 8.533333 59.733333 19.2 87.466667 36.266666l19.2 10.666667 36.266667-27.733333h2.133333l64 64v2.133333l-27.733333 36.266667 10.666666 19.2c17.066667 27.733333 27.733333 55.466667 36.266667 87.466666l4.266667 21.333334 44.8 6.4c2.133333 0 2.133333 0 2.133333 2.133333v89.6zM512 373.333333c-76.8 0-138.666667 61.866667-138.666667 138.666667s61.866667 138.666667 138.666667 138.666667 138.666667-61.866667 138.666667-138.666667-61.866667-138.666667-138.666667-138.666667z m0 213.333334c-40.533333 0-74.666667-34.133333-74.666667-74.666667s34.133333-74.666667 74.666667-74.666667 74.666667 34.133333 74.666667 74.666667-34.133333 74.666667-74.666667 74.666667z" p-id="2206"></path></svg>