<?xml version="1.0" standalone="no"?><!DOCTYPE svg PUBLIC "-//W3C//DTD SVG 1.1//EN" "http://www.w3.org/Graphics/SVG/1.1/DTD/svg11.dtd"><svg t="1739551111481" class="icon" viewBox="0 0 1024 1024" version="1.1" xmlns="http://www.w3.org/2000/svg" p-id="1432" xmlns:xlink="http://www.w3.org/1999/xlink" width="200" height="200"><path d="M972.8 742.4l-221.866667 226.133333c-8.533333 8.533333-21.333333 12.8-29.866666 12.8-8.533333 0-21.333333-4.266667-29.866667-12.8l-119.466667-119.466666c-17.066667-17.066667-17.066667-42.666667 0-59.733334 17.066667-17.066667 42.666667-17.066667 59.733334 0l89.6 89.6 192-192c17.066667-17.066667 42.666667-17.066667 59.733333 0 12.8 12.8 12.8 38.4 0 55.466667z" fill="#4E5969" p-id="1433"></path><path d="M793.6 123.733333h-42.666667v-17.066666c0-34.133333-29.866667-64-64-64H256c-34.133333 0-64 29.866667-64 64v17.066666h-42.666667C89.6 123.733333 42.666667 170.666667 42.666667 230.4v644.266667C42.666667 934.4 89.6 981.333333 149.333333 981.333333h349.866667c25.6 0 42.666667-17.066667 42.666667-42.666666s-17.066667-42.666667-42.666667-42.666667H149.333333c-12.8 0-21.333333-8.533333-21.333333-21.333333V230.4c0-12.8 8.533333-21.333333 21.333333-21.333333h42.666667v17.066666c0 34.133333 29.866667 64 64 64h426.666667c34.133333 0 64-29.866667 64-64v-17.066666h42.666666c12.8 0 21.333333 8.533333 21.333334 21.333333v337.066667c0 25.6 17.066667 42.666667 42.666666 42.666666s42.666667-17.066667 42.666667-42.666666V230.4c4.266667-59.733333-42.666667-106.666667-102.4-106.666667z m-128 81.066667h-384V128h384v76.8z" fill="#4E5969" p-id="1434"></path><path d="M648.533333 494.933333H294.4c-25.6 0-42.666667-17.066667-42.666667-42.666666s17.066667-42.666667 42.666667-42.666667h354.133333c25.6 0 42.666667 17.066667 42.666667 42.666667s-17.066667 42.666667-42.666667 42.666666zM460.8 686.933333H307.2c-25.6 0-42.666667-17.066667-42.666667-42.666666s17.066667-42.666667 42.666667-42.666667h153.6c25.6 0 42.666667 17.066667 42.666667 42.666667s-21.333333 42.666667-42.666667 42.666666z" fill="#4E5969" p-id="1435"></path></svg>