<?xml version="1.0" standalone="no"?><!DOCTYPE svg PUBLIC "-//W3C//DTD SVG 1.1//EN" "http://www.w3.org/Graphics/SVG/1.1/DTD/svg11.dtd"><svg t="1739549960383" class="icon" viewBox="0 0 1024 1024" version="1.1" xmlns="http://www.w3.org/2000/svg" p-id="2517" xmlns:xlink="http://www.w3.org/1999/xlink" width="200" height="200"><path d="M184.618667 155.221333C170.666667 182.613333 170.666667 218.453333 170.666667 290.133333v443.733334c0 71.68 0 107.52 13.952 134.912a128 128 0 0 0 55.936 55.936C267.946667 938.666667 303.786667 938.666667 375.466667 938.666667h273.066666c71.68 0 107.52 0 134.912-13.952a128 128 0 0 0 55.936-55.936C853.333333 841.386667 853.333333 805.546667 853.333333 733.866667V418.133333c0-11.946667 0-17.92-2.346666-22.485333a21.333333 21.333333 0 0 0-9.301334-9.301333C837.12 384 831.146667 384 819.2 384H725.333333a170.666667 170.666667 0 0 1-170.666666-170.666667V119.466667c0-11.946667 0-17.92-2.346667-22.485334a21.333333 21.333333 0 0 0-9.301333-9.344C538.453333 85.333333 532.48 85.333333 520.533333 85.333333H375.466667c-71.68 0-107.52 0-134.912 13.952a128 128 0 0 0-55.936 55.936z" fill="#2A343D" p-id="2518"></path><path d="M640 115.498667a30.165333 30.165333 0 0 1 51.498667-21.333334l153.002666 153.002667a30.165333 30.165333 0 0 1-21.333333 51.498667H725.333333a85.333333 85.333333 0 0 1-85.333333-85.333334V115.498667z" fill="#2A343D" p-id="2519"></path></svg>