<?xml version="1.0" standalone="no"?><!DOCTYPE svg PUBLIC "-//W3C//DTD SVG 1.1//EN" "http://www.w3.org/Graphics/SVG/1.1/DTD/svg11.dtd"><svg t="1739548298937" class="icon" viewBox="0 0 1024 1024" version="1.1" xmlns="http://www.w3.org/2000/svg" p-id="1380" xmlns:xlink="http://www.w3.org/1999/xlink" width="200" height="200"><path d="M512 544c123.733333 0 224-100.266667 224-224 0-59.733333-23.466667-115.2-64-157.866667-42.666667-42.666667-98.133333-66.133333-160-66.133333-123.733333 0-224 100.266667-224 224S388.266667 544 512 544z m0-384c42.666667 0 83.2 17.066667 113.066667 46.933333 29.866667 29.866667 46.933333 70.4 46.933333 113.066667 0 87.466667-72.533333 160-160 160s-160-72.533333-160-160 72.533333-160 160-160z m2.133333 448c-247.466667 0-396.8 93.866667-396.8 253.866667V896c0 17.066667 14.933333 32 32 32h725.333334c17.066667 0 32-14.933333 32-32v-34.133333c0-160-147.2-253.866667-392.533334-253.866667z m328.533334 256h-661.333334v-2.133333c0-177.066667 253.866667-189.866667 332.8-189.866667 76.8 0 328.533333 12.8 328.533334 189.866667v2.133333z" p-id="1381" fill="#707070"></path></svg>